<?xml version="1.0" encoding="UTF-8" standalone="no"?><svg xmlns="http://www.w3.org/2000/svg" xmlns:xlink="http://www.w3.org/1999/xlink" contentScriptType="application/ecmascript" contentStyleType="text/css" height="501px" preserveAspectRatio="none" style="width:891px;height:501px;background:#FFFFFF;" version="1.1" viewBox="0 0 891 501" width="891px" zoomAndPan="magnify"><defs><filter height="300%" id="f13nyza56fsm36" width="300%" x="-1" y="-1"><feGaussianBlur result="blurOut" stdDeviation="2.0"/><feColorMatrix in="blurOut" result="blurOut2" type="matrix" values="0 0 0 0 0 0 0 0 0 0 0 0 0 0 0 0 0 0 .4 0"/><feOffset dx="4.0" dy="4.0" in="blurOut2" result="blurOut3"/><feBlend in="SourceGraphic" in2="blurOut3" mode="normal"/></filter></defs><g><!--MD5=[f0268dd29ee89052933f031546cb1cab]
class Menu--><rect codeLine="2" fill="#FEFECE" filter="url(#f13nyza56fsm36)" height="48" id="Menu" style="stroke:#A80036;stroke-width:1.5;" width="66" x="240.5" y="115"/><ellipse cx="255.5" cy="131" fill="#ADD1B2" rx="11" ry="11" style="stroke:#A80036;stroke-width:1.0;"/><path d="M258.4688,136.6406 Q257.8906,136.9375 257.25,137.0781 Q256.6094,137.2344 255.9063,137.2344 Q253.4063,137.2344 252.0781,135.5938 Q250.7656,133.9375 250.7656,130.8125 Q250.7656,127.6875 252.0781,126.0313 Q253.4063,124.375 255.9063,124.375 Q256.6094,124.375 257.25,124.5313 Q257.9063,124.6875 258.4688,124.9844 L258.4688,127.7031 Q257.8438,127.125 257.25,126.8594 Q256.6563,126.5781 256.0313,126.5781 Q254.6875,126.5781 254,127.6563 Q253.3125,128.7188 253.3125,130.8125 Q253.3125,132.9063 254,133.9844 Q254.6875,135.0469 256.0313,135.0469 Q256.6563,135.0469 257.25,134.7813 Q257.8438,134.5 258.4688,133.9219 L258.4688,136.6406 Z " fill="#000000"/><text fill="#000000" font-family="sans-serif" font-size="12" lengthAdjust="spacing" textLength="34" x="269.5" y="135.1543">Menu</text><line style="stroke:#A80036;stroke-width:1.5;" x1="241.5" x2="305.5" y1="147" y2="147"/><line style="stroke:#A80036;stroke-width:1.5;" x1="241.5" x2="305.5" y1="155" y2="155"/><!--MD5=[00c8563a701cd07de8022c09921dec4a]
class PathFinder--><rect codeLine="6" fill="#FEFECE" filter="url(#f13nyza56fsm36)" height="48" id="PathFinder" style="stroke:#A80036;stroke-width:1.5;" width="100" x="320.5" y="7"/><ellipse cx="335.5" cy="23" fill="#ADD1B2" rx="11" ry="11" style="stroke:#A80036;stroke-width:1.0;"/><path d="M338.4688,28.6406 Q337.8906,28.9375 337.25,29.0781 Q336.6094,29.2344 335.9063,29.2344 Q333.4063,29.2344 332.0781,27.5938 Q330.7656,25.9375 330.7656,22.8125 Q330.7656,19.6875 332.0781,18.0313 Q333.4063,16.375 335.9063,16.375 Q336.6094,16.375 337.25,16.5313 Q337.9063,16.6875 338.4688,16.9844 L338.4688,19.7031 Q337.8438,19.125 337.25,18.8594 Q336.6563,18.5781 336.0313,18.5781 Q334.6875,18.5781 334,19.6563 Q333.3125,20.7188 333.3125,22.8125 Q333.3125,24.9063 334,25.9844 Q334.6875,27.0469 336.0313,27.0469 Q336.6563,27.0469 337.25,26.7813 Q337.8438,26.5 338.4688,25.9219 L338.4688,28.6406 Z " fill="#000000"/><text fill="#000000" font-family="sans-serif" font-size="12" lengthAdjust="spacing" textLength="68" x="349.5" y="27.1543">PathFinder</text><line style="stroke:#A80036;stroke-width:1.5;" x1="321.5" x2="419.5" y1="39" y2="39"/><line style="stroke:#A80036;stroke-width:1.5;" x1="321.5" x2="419.5" y1="47" y2="47"/><!--MD5=[5b31e77b39022bb5ab449b5d59ce0d59]
class VertexManagementMenu--><rect codeLine="10" fill="#FEFECE" filter="url(#f13nyza56fsm36)" height="48" id="VertexManagementMenu" style="stroke:#A80036;stroke-width:1.5;" width="188" x="252.5" y="223"/><ellipse cx="267.5" cy="239" fill="#ADD1B2" rx="11" ry="11" style="stroke:#A80036;stroke-width:1.0;"/><path d="M270.4688,244.6406 Q269.8906,244.9375 269.25,245.0781 Q268.6094,245.2344 267.9063,245.2344 Q265.4063,245.2344 264.0781,243.5938 Q262.7656,241.9375 262.7656,238.8125 Q262.7656,235.6875 264.0781,234.0313 Q265.4063,232.375 267.9063,232.375 Q268.6094,232.375 269.25,232.5313 Q269.9063,232.6875 270.4688,232.9844 L270.4688,235.7031 Q269.8438,235.125 269.25,234.8594 Q268.6563,234.5781 268.0313,234.5781 Q266.6875,234.5781 266,235.6563 Q265.3125,236.7188 265.3125,238.8125 Q265.3125,240.9063 266,241.9844 Q266.6875,243.0469 268.0313,243.0469 Q268.6563,243.0469 269.25,242.7813 Q269.8438,242.5 270.4688,241.9219 L270.4688,244.6406 Z " fill="#000000"/><text fill="#000000" font-family="sans-serif" font-size="12" lengthAdjust="spacing" textLength="156" x="281.5" y="243.1543">VertexManagementMenu</text><line style="stroke:#A80036;stroke-width:1.5;" x1="253.5" x2="439.5" y1="255" y2="255"/><line style="stroke:#A80036;stroke-width:1.5;" x1="253.5" x2="439.5" y1="263" y2="263"/><!--MD5=[1ea976322550e07da22f5d17701b99a3]
class SearchPathMenu--><rect codeLine="14" fill="#FEFECE" filter="url(#f13nyza56fsm36)" height="48" id="SearchPathMenu" style="stroke:#A80036;stroke-width:1.5;" width="139" x="7" y="223"/><ellipse cx="22" cy="239" fill="#ADD1B2" rx="11" ry="11" style="stroke:#A80036;stroke-width:1.0;"/><path d="M24.9688,244.6406 Q24.3906,244.9375 23.75,245.0781 Q23.1094,245.2344 22.4063,245.2344 Q19.9063,245.2344 18.5781,243.5938 Q17.2656,241.9375 17.2656,238.8125 Q17.2656,235.6875 18.5781,234.0313 Q19.9063,232.375 22.4063,232.375 Q23.1094,232.375 23.75,232.5313 Q24.4063,232.6875 24.9688,232.9844 L24.9688,235.7031 Q24.3438,235.125 23.75,234.8594 Q23.1563,234.5781 22.5313,234.5781 Q21.1875,234.5781 20.5,235.6563 Q19.8125,236.7188 19.8125,238.8125 Q19.8125,240.9063 20.5,241.9844 Q21.1875,243.0469 22.5313,243.0469 Q23.1563,243.0469 23.75,242.7813 Q24.3438,242.5 24.9688,241.9219 L24.9688,244.6406 Z " fill="#000000"/><text fill="#000000" font-family="sans-serif" font-size="12" lengthAdjust="spacing" textLength="107" x="36" y="243.1543">SearchPathMenu</text><line style="stroke:#A80036;stroke-width:1.5;" x1="8" x2="145" y1="255" y2="255"/><line style="stroke:#A80036;stroke-width:1.5;" x1="8" x2="145" y1="263" y2="263"/><!--MD5=[315b61b427ec618d6861d47eee00cca3]
class Console--><rect codeLine="18" fill="#FEFECE" filter="url(#f13nyza56fsm36)" height="48" id="Console" style="stroke:#A80036;stroke-width:1.5;" width="82" x="158.5" y="331"/><ellipse cx="173.5" cy="347" fill="#ADD1B2" rx="11" ry="11" style="stroke:#A80036;stroke-width:1.0;"/><path d="M176.4688,352.6406 Q175.8906,352.9375 175.25,353.0781 Q174.6094,353.2344 173.9063,353.2344 Q171.4063,353.2344 170.0781,351.5938 Q168.7656,349.9375 168.7656,346.8125 Q168.7656,343.6875 170.0781,342.0313 Q171.4063,340.375 173.9063,340.375 Q174.6094,340.375 175.25,340.5313 Q175.9063,340.6875 176.4688,340.9844 L176.4688,343.7031 Q175.8438,343.125 175.25,342.8594 Q174.6563,342.5781 174.0313,342.5781 Q172.6875,342.5781 172,343.6563 Q171.3125,344.7188 171.3125,346.8125 Q171.3125,348.9063 172,349.9844 Q172.6875,351.0469 174.0313,351.0469 Q174.6563,351.0469 175.25,350.7813 Q175.8438,350.5 176.4688,349.9219 L176.4688,352.6406 Z " fill="#000000"/><text fill="#000000" font-family="sans-serif" font-size="12" lengthAdjust="spacing" textLength="50" x="187.5" y="351.1543">Console</text><line style="stroke:#A80036;stroke-width:1.5;" x1="159.5" x2="239.5" y1="363" y2="363"/><line style="stroke:#A80036;stroke-width:1.5;" x1="159.5" x2="239.5" y1="371" y2="371"/><!--MD5=[74e179b9d81d7c70fa930fb563934bda]
class InformedSearch--><rect codeLine="22" fill="#FEFECE" filter="url(#f13nyza56fsm36)" height="48" id="InformedSearch" style="stroke:#A80036;stroke-width:1.5;" width="131" x="476" y="223"/><ellipse cx="491" cy="239" fill="#ADD1B2" rx="11" ry="11" style="stroke:#A80036;stroke-width:1.0;"/><path d="M493.9688,244.6406 Q493.3906,244.9375 492.75,245.0781 Q492.1094,245.2344 491.4063,245.2344 Q488.9063,245.2344 487.5781,243.5938 Q486.2656,241.9375 486.2656,238.8125 Q486.2656,235.6875 487.5781,234.0313 Q488.9063,232.375 491.4063,232.375 Q492.1094,232.375 492.75,232.5313 Q493.4063,232.6875 493.9688,232.9844 L493.9688,235.7031 Q493.3438,235.125 492.75,234.8594 Q492.1563,234.5781 491.5313,234.5781 Q490.1875,234.5781 489.5,235.6563 Q488.8125,236.7188 488.8125,238.8125 Q488.8125,240.9063 489.5,241.9844 Q490.1875,243.0469 491.5313,243.0469 Q492.1563,243.0469 492.75,242.7813 Q493.3438,242.5 493.9688,241.9219 L493.9688,244.6406 Z " fill="#000000"/><text fill="#000000" font-family="sans-serif" font-size="12" lengthAdjust="spacing" textLength="99" x="505" y="243.1543">InformedSearch</text><line style="stroke:#A80036;stroke-width:1.5;" x1="477" x2="606" y1="255" y2="255"/><line style="stroke:#A80036;stroke-width:1.5;" x1="477" x2="606" y1="263" y2="263"/><!--MD5=[a5326714031d5adb2bc40e38f03e7c72]
class Dijkstra--><rect codeLine="23" fill="#FEFECE" filter="url(#f13nyza56fsm36)" height="48" id="Dijkstra" style="stroke:#A80036;stroke-width:1.5;" width="79" x="347" y="331"/><ellipse cx="362" cy="347" fill="#ADD1B2" rx="11" ry="11" style="stroke:#A80036;stroke-width:1.0;"/><path d="M364.9688,352.6406 Q364.3906,352.9375 363.75,353.0781 Q363.1094,353.2344 362.4063,353.2344 Q359.9063,353.2344 358.5781,351.5938 Q357.2656,349.9375 357.2656,346.8125 Q357.2656,343.6875 358.5781,342.0313 Q359.9063,340.375 362.4063,340.375 Q363.1094,340.375 363.75,340.5313 Q364.4063,340.6875 364.9688,340.9844 L364.9688,343.7031 Q364.3438,343.125 363.75,342.8594 Q363.1563,342.5781 362.5313,342.5781 Q361.1875,342.5781 360.5,343.6563 Q359.8125,344.7188 359.8125,346.8125 Q359.8125,348.9063 360.5,349.9844 Q361.1875,351.0469 362.5313,351.0469 Q363.1563,351.0469 363.75,350.7813 Q364.3438,350.5 364.9688,349.9219 L364.9688,352.6406 Z " fill="#000000"/><text fill="#000000" font-family="sans-serif" font-size="12" lengthAdjust="spacing" textLength="47" x="376" y="351.1543">Dijkstra</text><line style="stroke:#A80036;stroke-width:1.5;" x1="348" x2="425" y1="363" y2="363"/><line style="stroke:#A80036;stroke-width:1.5;" x1="348" x2="425" y1="371" y2="371"/><!--MD5=[2ead43dca77a2d2202ee3414d8718c65]
class UniformCost--><rect codeLine="24" fill="#FEFECE" filter="url(#f13nyza56fsm36)" height="48" id="UniformCost" style="stroke:#A80036;stroke-width:1.5;" width="108" x="461.5" y="331"/><ellipse cx="476.5" cy="347" fill="#ADD1B2" rx="11" ry="11" style="stroke:#A80036;stroke-width:1.0;"/><path d="M479.4688,352.6406 Q478.8906,352.9375 478.25,353.0781 Q477.6094,353.2344 476.9063,353.2344 Q474.4063,353.2344 473.0781,351.5938 Q471.7656,349.9375 471.7656,346.8125 Q471.7656,343.6875 473.0781,342.0313 Q474.4063,340.375 476.9063,340.375 Q477.6094,340.375 478.25,340.5313 Q478.9063,340.6875 479.4688,340.9844 L479.4688,343.7031 Q478.8438,343.125 478.25,342.8594 Q477.6563,342.5781 477.0313,342.5781 Q475.6875,342.5781 475,343.6563 Q474.3125,344.7188 474.3125,346.8125 Q474.3125,348.9063 475,349.9844 Q475.6875,351.0469 477.0313,351.0469 Q477.6563,351.0469 478.25,350.7813 Q478.8438,350.5 479.4688,349.9219 L479.4688,352.6406 Z " fill="#000000"/><text fill="#000000" font-family="sans-serif" font-size="12" lengthAdjust="spacing" textLength="76" x="490.5" y="351.1543">UniformCost</text><line style="stroke:#A80036;stroke-width:1.5;" x1="462.5" x2="568.5" y1="363" y2="363"/><line style="stroke:#A80036;stroke-width:1.5;" x1="462.5" x2="568.5" y1="371" y2="371"/><!--MD5=[706e73df52f3df32f52be1ce9adb217e]
class Graph--><rect codeLine="25" fill="#FEFECE" filter="url(#f13nyza56fsm36)" height="48" id="Graph" style="stroke:#A80036;stroke-width:1.5;" width="70" x="582.5" y="115"/><ellipse cx="597.5" cy="131" fill="#ADD1B2" rx="11" ry="11" style="stroke:#A80036;stroke-width:1.0;"/><path d="M600.4688,136.6406 Q599.8906,136.9375 599.25,137.0781 Q598.6094,137.2344 597.9063,137.2344 Q595.4063,137.2344 594.0781,135.5938 Q592.7656,133.9375 592.7656,130.8125 Q592.7656,127.6875 594.0781,126.0313 Q595.4063,124.375 597.9063,124.375 Q598.6094,124.375 599.25,124.5313 Q599.9063,124.6875 600.4688,124.9844 L600.4688,127.7031 Q599.8438,127.125 599.25,126.8594 Q598.6563,126.5781 598.0313,126.5781 Q596.6875,126.5781 596,127.6563 Q595.3125,128.7188 595.3125,130.8125 Q595.3125,132.9063 596,133.9844 Q596.6875,135.0469 598.0313,135.0469 Q598.6563,135.0469 599.25,134.7813 Q599.8438,134.5 600.4688,133.9219 L600.4688,136.6406 Z " fill="#000000"/><text fill="#000000" font-family="sans-serif" font-size="12" lengthAdjust="spacing" textLength="38" x="611.5" y="135.1543">Graph</text><line style="stroke:#A80036;stroke-width:1.5;" x1="583.5" x2="651.5" y1="147" y2="147"/><line style="stroke:#A80036;stroke-width:1.5;" x1="583.5" x2="651.5" y1="155" y2="155"/><!--MD5=[7c3b4250513682fef636da80164234c2]
class Draw--><rect codeLine="26" fill="#FEFECE" filter="url(#f13nyza56fsm36)" height="48" id="Draw" style="stroke:#A80036;stroke-width:1.5;" width="63" x="764" y="115"/><ellipse cx="779" cy="131" fill="#ADD1B2" rx="11" ry="11" style="stroke:#A80036;stroke-width:1.0;"/><path d="M781.9688,136.6406 Q781.3906,136.9375 780.75,137.0781 Q780.1094,137.2344 779.4063,137.2344 Q776.9063,137.2344 775.5781,135.5938 Q774.2656,133.9375 774.2656,130.8125 Q774.2656,127.6875 775.5781,126.0313 Q776.9063,124.375 779.4063,124.375 Q780.1094,124.375 780.75,124.5313 Q781.4063,124.6875 781.9688,124.9844 L781.9688,127.7031 Q781.3438,127.125 780.75,126.8594 Q780.1563,126.5781 779.5313,126.5781 Q778.1875,126.5781 777.5,127.6563 Q776.8125,128.7188 776.8125,130.8125 Q776.8125,132.9063 777.5,133.9844 Q778.1875,135.0469 779.5313,135.0469 Q780.1563,135.0469 780.75,134.7813 Q781.3438,134.5 781.9688,133.9219 L781.9688,136.6406 Z " fill="#000000"/><text fill="#000000" font-family="sans-serif" font-size="12" lengthAdjust="spacing" textLength="31" x="793" y="135.1543">Draw</text><line style="stroke:#A80036;stroke-width:1.5;" x1="765" x2="826" y1="147" y2="147"/><line style="stroke:#A80036;stroke-width:1.5;" x1="765" x2="826" y1="155" y2="155"/><!--MD5=[c8b153f885034d44a79999642e3ba63d]
class Vertex--><rect codeLine="27" fill="#FEFECE" filter="url(#f13nyza56fsm36)" height="48" id="Vertex" style="stroke:#A80036;stroke-width:1.5;" width="72" x="479.5" y="439"/><ellipse cx="494.5" cy="455" fill="#ADD1B2" rx="11" ry="11" style="stroke:#A80036;stroke-width:1.0;"/><path d="M497.4688,460.6406 Q496.8906,460.9375 496.25,461.0781 Q495.6094,461.2344 494.9063,461.2344 Q492.4063,461.2344 491.0781,459.5938 Q489.7656,457.9375 489.7656,454.8125 Q489.7656,451.6875 491.0781,450.0313 Q492.4063,448.375 494.9063,448.375 Q495.6094,448.375 496.25,448.5313 Q496.9063,448.6875 497.4688,448.9844 L497.4688,451.7031 Q496.8438,451.125 496.25,450.8594 Q495.6563,450.5781 495.0313,450.5781 Q493.6875,450.5781 493,451.6563 Q492.3125,452.7188 492.3125,454.8125 Q492.3125,456.9063 493,457.9844 Q493.6875,459.0469 495.0313,459.0469 Q495.6563,459.0469 496.25,458.7813 Q496.8438,458.5 497.4688,457.9219 L497.4688,460.6406 Z " fill="#000000"/><text fill="#000000" font-family="sans-serif" font-size="12" lengthAdjust="spacing" textLength="40" x="508.5" y="459.1543">Vertex</text><line style="stroke:#A80036;stroke-width:1.5;" x1="480.5" x2="550.5" y1="471" y2="471"/><line style="stroke:#A80036;stroke-width:1.5;" x1="480.5" x2="550.5" y1="479" y2="479"/><!--MD5=[81ea769a686cdd41918c022741237b96]
class PyGraphviz--><rect fill="#FEFECE" filter="url(#f13nyza56fsm36)" height="48" id="PyGraphviz" style="stroke:#A80036;stroke-width:1.5;" width="98" x="746.5" y="223"/><ellipse cx="761.5" cy="239" fill="#ADD1B2" rx="11" ry="11" style="stroke:#A80036;stroke-width:1.0;"/><path d="M764.4688,244.6406 Q763.8906,244.9375 763.25,245.0781 Q762.6094,245.2344 761.9063,245.2344 Q759.4063,245.2344 758.0781,243.5938 Q756.7656,241.9375 756.7656,238.8125 Q756.7656,235.6875 758.0781,234.0313 Q759.4063,232.375 761.9063,232.375 Q762.6094,232.375 763.25,232.5313 Q763.9063,232.6875 764.4688,232.9844 L764.4688,235.7031 Q763.8438,235.125 763.25,234.8594 Q762.6563,234.5781 762.0313,234.5781 Q760.6875,234.5781 760,235.6563 Q759.3125,236.7188 759.3125,238.8125 Q759.3125,240.9063 760,241.9844 Q760.6875,243.0469 762.0313,243.0469 Q762.6563,243.0469 763.25,242.7813 Q763.8438,242.5 764.4688,241.9219 L764.4688,244.6406 Z " fill="#000000"/><text fill="#000000" font-family="sans-serif" font-size="12" lengthAdjust="spacing" textLength="66" x="775.5" y="243.1543">PyGraphviz</text><line style="stroke:#A80036;stroke-width:1.5;" x1="747.5" x2="843.5" y1="255" y2="255"/><line style="stroke:#A80036;stroke-width:1.5;" x1="747.5" x2="843.5" y1="263" y2="263"/><!--MD5=[845e007235ba1c80b6b34cc25de2a5d1]
link PathFinder to Menu--><path codeLine="30" d="M341.3491,63.853 C341.3491,63.853 315.56,92.03 303.83,104.85 " fill="none" id="PathFinder-Menu" style="stroke:#A80036;stroke-width:1.0;"/><polygon fill="#A80036" points="294.84,114.68,303.8667,110.7406,298.2154,110.9913,297.9647,105.34,294.84,114.68" style="stroke:#A80036;stroke-width:1.0;"/><line style="stroke:#A80036;stroke-width:1.0;" x1="298.2154" x2="303.615" y1="110.9913" y2="105.09"/><polygon fill="#A80036" points="349.45,55,342.4485,56.7262,341.3491,63.853,348.3505,62.1268,349.45,55" style="stroke:#A80036;stroke-width:1.0;"/><!--MD5=[cf2905f37e5e022a4ea527ebd6d4eedc]
link PathFinder to Graph--><path codeLine="31" d="M420.78,53.58 C467.1,73.45 534.91,102.56 577.6,120.88 " fill="none" id="PathFinder-to-Graph" style="stroke:#A80036;stroke-width:1.0;"/><polygon fill="#A80036" points="582.42,122.95,575.7315,115.7206,577.8265,120.9752,572.5719,123.0702,582.42,122.95" style="stroke:#A80036;stroke-width:1.0;"/><!--MD5=[8dd7646bde813fbafe92d7304ee68c4f]
link Graph to InformedSearch--><path codeLine="32" d="M601.01,163 C589.34,179.28 573.63,201.19 561.28,218.41 " fill="none" id="Graph-to-InformedSearch" style="stroke:#A80036;stroke-width:1.0;stroke-dasharray:7.0,7.0;"/><polygon fill="#A80036" points="558.22,222.68,566.6994,217.6701,561.1208,218.6075,560.1834,213.0288,558.22,222.68" style="stroke:#A80036;stroke-width:1.0;"/><!--MD5=[3c0932f709fa211a8b0ca0586e4c136c]
link Graph to Vertex--><path codeLine="33" d="M623.84,163.05 C634.77,207.69 652.62,307.8 615.5,379 C602.3,404.32 577.71,424.89 556.22,439.22 " fill="none" id="Graph-to-Vertex" style="stroke:#A80036;stroke-width:1.0;"/><polygon fill="#A80036" points="551.97,442,561.6901,440.4128,556.1521,439.2595,557.3054,433.7215,551.97,442" style="stroke:#A80036;stroke-width:1.0;"/><!--MD5=[1ba898d0c9e5379efc569e41df2f093e]
link Graph to Draw--><path codeLine="34" d="M664.61,139 C664.61,139 722.49,139 750.91,139 " fill="none" id="Graph-Draw" style="stroke:#A80036;stroke-width:1.0;"/><polygon fill="#A80036" points="763.96,139,754.96,135,758.96,139,754.96,143,763.96,139" style="stroke:#A80036;stroke-width:1.0;"/><line style="stroke:#A80036;stroke-width:1.0;" x1="758.96" x2="750.96" y1="139" y2="139"/><polygon fill="#A80036" points="652.61,139,658.61,143,664.61,139,658.61,135,652.61,139" style="stroke:#A80036;stroke-width:1.0;"/><!--MD5=[fd337a7a545b0b4b9c94219e35a77d02]
link Draw to Vertex--><path codeLine="35" d="M822.03,163.17 C849.08,189.72 884.21,234.27 862.5,271 C795.14,384.97 632.84,435.54 556.5,453.62 " fill="none" id="Draw-to-Vertex" style="stroke:#A80036;stroke-width:1.0;"/><polygon fill="#A80036" points="551.6,454.76,561.2706,456.6255,556.471,453.6315,559.465,448.832,551.6,454.76" style="stroke:#A80036;stroke-width:1.0;"/><!--MD5=[a70c01e57b7afbaf811620fd0c282654]
link InformedSearch to Vertex--><path codeLine="36" d="M559.75,271.29 C578,297.56 601.49,341.51 587.5,379 C579.44,400.58 562.97,420.27 547.8,435.05 " fill="none" id="InformedSearch-to-Vertex" style="stroke:#A80036;stroke-width:1.0;stroke-dasharray:7.0,7.0;"/><polygon fill="#A80036" points="543.98,438.7,553.2487,435.3696,547.5932,435.2439,547.7189,429.5884,543.98,438.7" style="stroke:#A80036;stroke-width:1.0;"/><!--MD5=[24a969b60407700e8bd36cc164333d7f]
link InformedSearch to Console--><path codeLine="37" d="M475.96,268.31 C408.43,289.25 304.88,321.34 245.54,339.73 " fill="none" id="InformedSearch-to-Console" style="stroke:#A80036;stroke-width:1.0;stroke-dasharray:7.0,7.0;"/><polygon fill="#A80036" points="240.64,341.25,250.4223,342.3935,245.4139,339.7635,248.0439,334.7552,240.64,341.25" style="stroke:#A80036;stroke-width:1.0;"/><!--MD5=[8d321f4625f5199238b32a427cef5656]
link VertexManagementMenu to Vertex--><path codeLine="38" d="M334.85,271.35 C322.74,299.26 308.28,346.29 329.5,379 C361.38,428.13 429.86,448.43 474.24,456.64 " fill="none" id="VertexManagementMenu-to-Vertex" style="stroke:#A80036;stroke-width:1.0;stroke-dasharray:7.0,7.0;"/><polygon fill="#A80036" points="479.26,457.54,471.0939,452.0341,474.3364,456.6694,469.701,459.9119,479.26,457.54" style="stroke:#A80036;stroke-width:1.0;"/><!--MD5=[3c231a3918e18c145258342333923bcd]
link SearchPathMenu to Vertex--><path codeLine="39" d="M81.28,271.07 C88.67,300.73 105.8,351.67 140.5,379 C192.31,419.8 387.95,447.11 474.21,457.41 " fill="none" id="SearchPathMenu-to-Vertex" style="stroke:#A80036;stroke-width:1.0;stroke-dasharray:7.0,7.0;"/><polygon fill="#A80036" points="479.24,458,470.7859,452.9475,474.2762,457.3992,469.8246,460.8896,479.24,458" style="stroke:#A80036;stroke-width:1.0;"/><!--MD5=[49d0b10ff6921f30514b2a3b0d7944c5]
reverse link InformedSearch to Dijkstra--><path codeLine="40" d="M491.03,282.51 C467.87,298.35 441.02,316.71 420.33,330.86 " fill="none" id="InformedSearch-backto-Dijkstra" style="stroke:#A80036;stroke-width:1.0;"/><polygon fill="none" points="487.41,276.51,507.87,271,495.31,288.07,487.41,276.51" style="stroke:#A80036;stroke-width:1.0;"/><!--MD5=[de4433ada988250fc35ca9e8ef2eff0f]
reverse link InformedSearch to UniformCost--><path codeLine="41" d="M531.07,290.54 C527.71,304.23 524.11,318.9 521.22,330.68 " fill="none" id="InformedSearch-backto-UniformCost" style="stroke:#A80036;stroke-width:1.0;"/><polygon fill="none" points="524.3,288.76,535.86,271,537.89,292.09,524.3,288.76" style="stroke:#A80036;stroke-width:1.0;"/><!--MD5=[4ca8d76dd1ab8152c274da775a61cfb3]
link Dijkstra to Vertex--><path codeLine="42" d="M414.49,379 C434.72,395.62 462.1,418.12 483.24,435.5 " fill="none" id="Dijkstra-to-Vertex" style="stroke:#A80036;stroke-width:1.0;stroke-dasharray:7.0,7.0;"/><polygon fill="#A80036" points="487.12,438.68,482.712,429.8726,483.2591,435.503,477.6288,436.05,487.12,438.68" style="stroke:#A80036;stroke-width:1.0;"/><!--MD5=[ef6ab679c430a88d7e7ff72427989712]
link UniformCost to Vertex--><path codeLine="43" d="M515.5,379 C515.5,395 515.5,416.45 515.5,433.53 " fill="none" id="UniformCost-to-Vertex" style="stroke:#A80036;stroke-width:1.0;stroke-dasharray:7.0,7.0;"/><polygon fill="#A80036" points="515.5,438.68,519.5,429.68,515.5,433.68,511.5,429.68,515.5,438.68" style="stroke:#A80036;stroke-width:1.0;"/><!--MD5=[16ff943beed9d586b183b9136ced0de5]
reverse link Menu to VertexManagementMenu--><path codeLine="46" d="M300.81,179.66 C310.79,194.15 321.75,210.07 330.44,222.68 " fill="none" id="Menu-backto-VertexManagementMenu" style="stroke:#A80036;stroke-width:1.0;"/><polygon fill="none" points="294.92,183.44,289.34,163,306.45,175.5,294.92,183.44" style="stroke:#A80036;stroke-width:1.0;"/><!--MD5=[1f366831e67bd7fdc6101c7c357d97bf]
reverse link Menu to SearchPathMenu--><path codeLine="47" d="M222.41,167.49 C190.43,184.7 149.69,206.62 119.39,222.92 " fill="none" id="Menu-backto-SearchPathMenu" style="stroke:#A80036;stroke-width:1.0;"/><polygon fill="none" points="219.15,161.29,240.08,157.98,225.79,173.62,219.15,161.29" style="stroke:#A80036;stroke-width:1.0;"/><!--MD5=[b70faca776d776ff2a265e9bdfe9e394]
link Menu to Console--><path codeLine="48" d="M261.26,163.14 C252.94,179.53 242.09,202.21 234.5,223 C221.86,257.62 211.59,298.89 205.52,325.73 " fill="none" id="Menu-to-Console" style="stroke:#A80036;stroke-width:1.0;stroke-dasharray:7.0,7.0;"/><polygon fill="#A80036" points="204.36,330.9,210.2171,322.982,205.4447,326.0191,202.4076,321.2466,204.36,330.9" style="stroke:#A80036;stroke-width:1.0;"/><!--MD5=[6cad467f028f2651a0ba9706c4f416ac]
link VertexManagementMenu to Console--><path codeLine="49" d="M314.6,271 C291.37,287.75 259.88,310.46 235.71,327.89 " fill="none" id="VertexManagementMenu-to-Console" style="stroke:#A80036;stroke-width:1.0;stroke-dasharray:7.0,7.0;"/><polygon fill="#A80036" points="231.59,330.86,241.2286,328.8358,235.6441,327.9336,236.5463,322.3491,231.59,330.86" style="stroke:#A80036;stroke-width:1.0;"/><!--MD5=[96c414f033be96b4b89838403d1398f0]
link SearchPathMenu to Console--><path codeLine="50" d="M103.19,271 C122.4,287.55 148.36,309.93 168.49,327.28 " fill="none" id="SearchPathMenu-to-Console" style="stroke:#A80036;stroke-width:1.0;stroke-dasharray:7.0,7.0;"/><polygon fill="#A80036" points="172.44,330.68,168.2264,321.778,168.6498,327.419,163.0088,327.8423,172.44,330.68" style="stroke:#A80036;stroke-width:1.0;"/><!--MD5=[24d16257e26e7cda4c1b0c724ed4baff]
link Draw to PyGraphviz--><path codeLine="52" d="M795.5,163 C795.5,179 795.5,200.45 795.5,217.53 " fill="none" id="Draw-to-PyGraphviz" style="stroke:#A80036;stroke-width:1.0;"/><polygon fill="#A80036" points="795.5,222.68,799.5,213.68,795.5,217.68,791.5,213.68,795.5,222.68" style="stroke:#A80036;stroke-width:1.0;"/><!--MD5=[fda24144898fe6bc13fa56696bd80c68]
@startuml "PathFinder"

class Menu{

}

class PathFinder {

}

class VertexManagementMenu {

}

class SearchPathMenu {

}

class Console {

}

class InformedSearch {}
class Dijkstra {}
class UniformCost {}
class Graph{}
class Draw{}
class Vertex{}


PathFinder *- -> Menu
PathFinder - -> Graph
Graph ..> InformedSearch
Graph - -> Vertex
Graph *-> Draw
Draw - -> Vertex
InformedSearch ..> Vertex
InformedSearch ..> Console
VertexManagementMenu ..> Vertex
SearchPathMenu ..> Vertex
InformedSearch <|- - Dijkstra
InformedSearch <|- - UniformCost
Dijkstra ..> Vertex
UniformCost ..> Vertex


Menu <|- - VertexManagementMenu
Menu <|- - SearchPathMenu
Menu ..> Console
VertexManagementMenu ..> Console
SearchPathMenu ..> Console

Draw - -> PyGraphviz
@enduml

PlantUML version 1.2022.0(Tue Jan 11 11:16:42 ECT 2022)
(GPL source distribution)
Java Runtime: OpenJDK Runtime Environment
JVM: OpenJDK 64-Bit Server VM
Default Encoding: UTF-8
Language: en
Country: US
--></g></svg>